<svg width="390" height="490" xmlns="http://www.w3.org/2000/svg" xmlns:xlink="http://www.w3.org/1999/xlink"><defs><path id="a" d="M0 0h390v490H0z"/></defs><g fill="none" fill-rule="evenodd"><mask id="b" fill="#fff"><use xlink:href="#a"/></mask><path d="M317.368-246a50 50 0 0124.975 41.697l.025 1.62-.144 450.25a50 50 0 01-23.554 42.418l-1.432.86-389.856 225.25a50 50 0 01-48.597.795l-1.417-.788-389.711-225a50 50 0 01-24.974-41.696l-.026-1.62.144-450.25a50 50 0 0123.555-42.419l1.431-.86 389.856-225.249a50 50 0 0148.597-.796l1.417.788 389.711 225zm-439.87 312.381l-337.262 197.343 337.139 194.647.123-391.99zm-24.54-43.572l-340.164-196.395-.128 395.512 340.293-199.117zM267.234 261.99L-72.507 65.84l-.123 392.517L267.233 261.99zm25-43.301l.127-392.513L-47.507 22.54l339.74 196.149zM-119.74-414.759l-342.465 197.872 340.172 196.399 2.293-394.27zM267.371-217.13L-69.758-411.772l-2.272 390.74 339.4-196.1z" fill="#ECE7EE" fill-rule="nonzero" mask="url(#b)"/></g></svg>