<svg width="940" height="880" xmlns="http://www.w3.org/2000/svg" xmlns:xlink="http://www.w3.org/1999/xlink"><defs><path id="a" d="M0 0h940v880H0z"/></defs><g fill="none" fill-rule="evenodd"><mask id="b" fill="#fff"><use xlink:href="#a"/></mask><path d="M874.737-661a100 100 0 0149.949 83.393l.05 3.242-.288 900.5a100 100 0 01-47.109 84.835l-2.863 1.719-779.711 450.5a100 100 0 01-97.195 1.59l-2.833-1.574-779.423-450a100 100 0 01-49.949-83.394l-.051-3.24.289-900.5a100 100 0 0147.109-84.837l2.863-1.718 779.711-450.5a100 100 0 0197.195-1.591l2.833 1.575 779.423 450zM-5.003-36.24l-674.525 394.688L-5.25 747.742l.247-783.981zM-54.08-123.38l-680.333-392.79-.256 791.024L-54.08-123.38zM774.467 354.98L94.986-37.318l-.246 785.032L774.467 354.98zm50-86.603l.253-785.027L144.986-123.92l679.48 392.298zM.52-998.517l-684.933 395.743L-4.067-209.976.52-998.516zm774.221 395.255L100.486-992.544l-4.547 781.481 678.802-392.2z" fill="#ECE7EE" fill-rule="nonzero" mask="url(#b)"/></g></svg>