<svg width="40" height="40" xmlns="http://www.w3.org/2000/svg"><defs><linearGradient x1="100%" y1="0%" x2="0%" y2="100%" id="a"><stop stop-color="#FFF" offset="0%"/><stop stop-color="#FFF" offset="0%"/><stop stop-color="#ECB7F6" offset="100%"/></linearGradient><linearGradient x1="100%" y1="19.482%" x2="0%" y2="80.518%" id="b"><stop stop-color="#CD3A67" offset="0%"/><stop stop-color="#49205E" offset="100%"/></linearGradient></defs><g fill="none" fill-rule="evenodd"><path d="M10.256 0h19.488c3.567 0 4.86.371 6.163 1.069a7.27 7.27 0 0 1 3.024 3.024C39.63 5.396 40 6.689 40 10.256v19.488c0 3.567-.371 4.86-1.069 6.163a7.27 7.27 0 0 1-3.024 3.024C34.604 39.63 33.311 40 29.744 40H10.256c-3.567 0-4.86-.371-6.163-1.069a7.27 7.27 0 0 1-3.024-3.024C.37 34.604 0 33.311 0 29.744V10.256c0-3.567.371-4.86 1.069-6.163a7.27 7.27 0 0 1 3.024-3.024C5.396.37 6.689 0 10.256 0z" fill="url(#a)"/><g fill-rule="nonzero"><path d="M14 3H1.5A1.5 1.5 0 0 1 0 1.5V12a2 2 0 0 0 2 2h12a2 2 0 0 0 2-2V5c0-1.103-.897-2-2-2zm-1 6.5a1 1 0 1 1 0-2 1 1 0 0 1 0 2z" fill="url(#b)" transform="translate(12 13)"/><path d="M27 14.5v1.777A1.983 1.983 0 0 0 26 16H13.5a1.5 1.5 0 0 1 0-3h12a1.5 1.5 0 0 1 1.5 1.5z" fill="#B53565" opacity=".5"/></g></g></svg>