<svg width="40" height="40" xmlns="http://www.w3.org/2000/svg"><defs><linearGradient x1="100%" y1="0%" x2="0%" y2="100%" id="a"><stop stop-color="#FFF" offset="0%"/><stop stop-color="#FFF" offset="0%"/><stop stop-color="#ECB7F6" offset="100%"/></linearGradient><linearGradient x1="90.502%" y1="0%" x2="9.498%" y2="100%" id="b"><stop stop-color="#CD3A67" offset="0%"/><stop stop-color="#49205E" offset="100%"/></linearGradient></defs><g fill="none" fill-rule="evenodd"><path d="M10.256 0h19.488c3.567 0 4.86.371 6.163 1.069a7.27 7.27 0 0 1 3.024 3.024C39.63 5.396 40 6.689 40 10.256v19.488c0 3.567-.371 4.86-1.069 6.163a7.27 7.27 0 0 1-3.024 3.024C34.604 39.63 33.311 40 29.744 40H10.256c-3.567 0-4.86-.371-6.163-1.069a7.27 7.27 0 0 1-3.024-3.024C.37 34.604 0 33.311 0 29.744V10.256c0-3.567.371-4.86 1.069-6.163a7.27 7.27 0 0 1 3.024-3.024C5.396.37 6.689 0 10.256 0z" fill="url(#a)"/><g fill-rule="nonzero"><path d="M29.905 17.364a.322.322 0 0 1-.003.46l-3.974 3.833a.339.339 0 0 1-.473-.003l-2.297-2.25a.32.32 0 0 1 .002-.46l.79-.762a.339.339 0 0 1 .473.002l1.28 1.253 2.948-2.844a.339.339 0 0 1 .472.003l.782.768z" fill="#B53565" opacity=".5"/><path d="M6.3 7c1.988 0 3.6-1.567 3.6-3.5S8.288 0 6.3 0 2.7 1.567 2.7 3.5 4.312 7 6.3 7zm2.52.875h-.47a5.023 5.023 0 0 1-4.1 0h-.47C1.693 7.875 0 9.521 0 11.55v1.137C0 13.412.604 14 1.35 14h9.9c.746 0 1.35-.588 1.35-1.313V11.55c0-2.03-1.692-3.675-3.78-3.675z" fill="url(#b)" transform="translate(12 13)"/></g></g></svg>