<svg width="40" height="40" xmlns="http://www.w3.org/2000/svg"><defs><linearGradient x1="100%" y1="0%" x2="0%" y2="100%" id="a"><stop stop-color="#FFF" offset="0%"/><stop stop-color="#FFF" offset="0%"/><stop stop-color="#ECB7F6" offset="100%"/></linearGradient><linearGradient x1="71.78%" y1="0%" x2="28.22%" y2="100%" id="b"><stop stop-color="#CD3A67" offset="0%"/><stop stop-color="#49205E" offset="100%"/></linearGradient></defs><g fill="none" fill-rule="evenodd"><path d="M10.256 0h19.488c3.567 0 4.86.371 6.163 1.069a7.27 7.27 0 013.024 3.024C39.63 5.396 40 6.689 40 10.256v19.488c0 3.567-.371 4.86-1.069 6.163a7.27 7.27 0 01-3.024 3.024C34.604 39.63 33.311 40 29.744 40H10.256c-3.567 0-4.86-.371-6.163-1.069a7.27 7.27 0 01-3.024-3.024C.37 34.604 0 33.311 0 29.744V10.256c0-3.567.371-4.86 1.069-6.163a7.27 7.27 0 013.024-3.024C5.396.37 6.689 0 10.256 0z" fill="url(#a)"/><g fill-rule="nonzero"><path d="M28.1 21.438h-.9v-2.344c0-1.295-1.007-2.344-2.25-2.344s-2.25 1.05-2.25 2.344v2.343h-.9c-.497 0-.9.42-.9.938v4.688c0 .517.403.937.9.937h6.3c.497 0 .9-.42.9-.938v-4.687c0-.518-.403-.938-.9-.938zm-3.15 4.218c-.497 0-.9-.42-.9-.937 0-.518.403-.938.9-.938s.9.42.9.938-.403.937-.9.937zm.9-4.218h-1.8v-2.344c0-.518.403-.938.9-.938s.9.42.9.938v2.343z" fill="#B53565" opacity=".5"/><path d="M6.3 7.5c1.988 0 3.6-1.679 3.6-3.75C9.9 1.679 8.288 0 6.3 0S2.7 1.679 2.7 3.75c0 2.071 1.612 3.75 3.6 3.75zM9 9.375c.002-.313.08-.62.228-.894-.135-.014-.267-.043-.408-.043h-.47a4.719 4.719 0 01-4.1 0h-.47C1.693 8.438 0 10.2 0 12.374v1.219C0 14.37.604 15 1.35 15h7.9a1.92 1.92 0 01-.25-.938V9.375z" fill="url(#b)" transform="translate(11 13)"/></g></g></svg>